<?xml version="1.0" encoding="UTF-8"?>
<svg id="_레이어_1" data-name="레이어_1" xmlns="http://www.w3.org/2000/svg" version="1.1" viewBox="0 0 31.88 32">
  <!-- Generator: Adobe Illustrator 29.8.3, SVG Export Plug-In . SVG Version: 2.1.1 Build 3)  -->
  <defs>
    <style>
      .st0 {
        fill: #14b8a6;
      }
    </style>
  </defs>
  <path class="st0" d="M30.68,12.25c0-1.44-.56-2.79-1.57-3.8-1.11-1.11-2.58-1.63-4.05-1.57.01-.24,0-.48-.02-.73-.13-1.43-.8-2.72-1.91-3.64-1.1-.92-2.51-1.36-3.92-1.23-.94.08-1.82.4-2.57.92-2.09-1.44-4.98-1.23-6.84.63-1.02,1.01-1.58,2.36-1.58,3.8,0,.08,0,.17,0,.25-.24-.01-.48,0-.73.02-1.43.13-2.72.8-3.64,1.91s-1.36,2.5-1.23,3.93c.08.95.41,1.83.94,2.59-1.29,2.01-1.12,4.71.57,6.54.67.73,1.52,1.23,2.45,1.51l-4.98,4.98c-.55.55-.55,1.44,0,1.99.27.27.63.41.99.41s.72-.14.99-.41l4.85-4.85c.3,1.01.88,1.91,1.71,2.6,1.89,1.58,4.55,1.63,6.49.3.89.61,1.94.94,3.04.94h0c1.43,0,2.78-.56,3.8-1.57s1.57-2.36,1.58-3.8c0-.08,0-.17,0-.25.24.01.48,0,.73-.02,1.43-.13,2.72-.8,3.64-1.91,1.58-1.89,1.63-4.55.3-6.49.61-.89.94-1.94.94-3.04ZM11.79,4.82c1-1,2.63-1,3.63,0,.05.05.11.11.15.17.27.32.66.5,1.08.5h0c.42,0,.81-.19,1.08-.5.44-.53,1.06-.85,1.74-.91.68-.06,1.35.15,1.87.59.53.44.85,1.06.91,1.74.06.68-.15,1.35-.58,1.87-.05.05-.09.11-.14.16,0,0,0,0-.01.01,0,0,0,0,0,0l-4.86,4.86-4.86-4.86c-.48-.48-.75-1.13-.75-1.81,0-.69.27-1.33.75-1.81ZM6.21,19.96c-.92-1-.89-2.54.03-3.51.1-.07.2-.16.28-.26.5-.6.42-1.48-.18-1.98-1.09-.91-1.23-2.53-.32-3.61.44-.53,1.06-.85,1.74-.91.68-.06,1.35.15,1.87.58.06.05.12.1.17.15l4.86,4.86-4.83,4.83c-1.05.95-2.67.88-3.63-.16ZM21.5,25.77c-.48.48-1.13.75-1.81.75h0c-.68,0-1.33-.27-1.81-.75-.06-.06-.11-.12-.16-.18-.27-.32-.66-.5-1.07-.5-.38.02-.81.19-1.08.5-.91,1.08-2.53,1.23-3.61.32-.53-.44-.85-1.06-.91-1.74-.06-.68.15-1.35.58-1.87.05-.06.11-.12.16-.18l4.86-4.86,4.86,4.86c.48.48.75,1.13.75,1.81,0,.68-.27,1.33-.75,1.81ZM26.95,16.37c1.09.91,1.23,2.53.32,3.62-.44.53-1.06.85-1.74.91-.67.06-1.35-.15-1.87-.58-.06-.05-.12-.1-.17-.16l-4.86-4.86,4.86-4.86s0,0,.01-.01c1-.99,2.62-.99,3.62,0,.49.48.75,1.13.75,1.81,0,.68-.27,1.33-.75,1.81-.06.06-.12.11-.18.16-.32.27-.5.66-.5,1.08,0,.41.19.81.5,1.07Z"/>
</svg>